# xmcd
#
# Track frame offsets:
# 150
# 14302
# 26280
# 39012
# 50085
# 68210
# 84672
# 99835
# 111550
# 126337
# 143575
# 154465
# 167640
# 184280
# 194595
# 209142
# 218932
# 231280
# 243210
# 251425
#
# Disc length: 3515 seconds
#
#
# Revision: 0
# Processed by: cddbd v1.5.1PL2 Copyright (c) Steve Scherf et al.
# Submitted via: FreeRIP 2.945 
#
DISCID=210db914
DTITLE=Tibagi e Niltinho - Raízes Sertanejas
DYEAR=1900
DGENRE=Sertanejo
TTITLE0=O menino da porteira
TTITLE1=A dama de vermelho
TTITLE2=Foi um sonho
TTITLE3=Mulher de ninguém
TTITLE4=Arrependimento
TTITLE5=Meu martírio
TTITLE6=Couro de boi
TTITLE7=Gangorra
TTITLE8=Sem a mulher o homem não vive
TTITLE9=Vestido molhado
TTITLE10=Velho carreiro
TTITLE11=Índia soberana
TTITLE12=Dia mais triste da vida
TTITLE13=Amargura
TTITLE14=Borboleta
TTITLE15=Onde estás?
TTITLE16=Podre coração
TTITLE17=Adeus pra sempre
TTITLE18=Decisão cruel
TTITLE19=Escravo do seu coração
EXTD=
EXTT0=
EXTT1=
EXTT2=
EXTT3=
EXTT4=
EXTT5=
EXTT6=
EXTT7=
EXTT8=
EXTT9=
EXTT10=
EXTT11=
EXTT12=
EXTT13=
EXTT14=
EXTT15=
EXTT16=
EXTT17=
EXTT18=
EXTT19=
PLAYORDER=
